<svg width="67" height="41" viewBox="0 0 67 41" fill="none" xmlns="http://www.w3.org/2000/svg">
<path d="M28.0908 13.9997C27.7158 12.852 27.2215 11.8236 26.6079 10.9145C26.0056 9.99398 25.284 9.20988 24.4431 8.56218C23.6135 7.91448 22.6704 7.42018 21.6135 7.07918C20.5567 6.73828 19.3976 6.56788 18.1363 6.56788C16.0681 6.56788 14.1874 7.10198 12.4942 8.17018C10.801 9.23828 9.45444 10.8122 8.45444 12.8917C7.45444 14.9713 6.95444 17.5224 6.95444 20.5452C6.95444 23.5679 7.46012 26.119 8.47148 28.1986C9.48284 30.2781 10.8522 31.852 12.5794 32.9202C14.3067 33.9883 16.2499 34.5224 18.409 34.5224C20.409 34.5224 22.1704 34.0963 23.6931 33.244C25.2272 32.3804 26.4204 31.1645 27.2726 29.5963C28.1363 28.0167 28.5681 26.1588 28.5681 24.0224L29.8635 24.2952H19.3635V20.5452H32.659V24.2952C32.659 27.1702 32.0454 29.6702 30.8181 31.7952C29.6022 33.9202 27.9204 35.5679 25.7726 36.7383C23.6363 37.8974 21.1817 38.477 18.409 38.477C15.3181 38.477 12.6022 37.7497 10.2613 36.2952C7.93171 34.8406 6.11353 32.7724 4.80671 30.0906C3.51125 27.4088 2.86353 24.227 2.86353 20.5452C2.86353 17.7838 3.23284 15.3008 3.97148 13.0963C4.72148 10.8804 5.7783 8.99398 7.14194 7.43718C8.50557 5.88038 10.1192 4.68718 11.9829 3.85768C13.8465 3.02808 15.8976 2.61328 18.1363 2.61328C19.9772 2.61328 21.6931 2.89168 23.284 3.44858C24.8863 3.99398 26.3124 4.77238 27.5624 5.78378C28.8238 6.78378 29.8749 7.98268 30.7158 9.38038C31.5567 10.7667 32.1363 12.3065 32.4544 13.9997H28.0908Z" fill="#9701FE"/>
<path d="M36.2273 37.9999V3.09082H40.4545V20.409H40.8636L56.5455 3.09082H62.0682L47.4091 18.8408L62.0682 37.9999H56.9545L44.8182 21.7726L40.4545 26.6817V37.9999H36.2273Z" fill="#9701FE"/>
<mask id="mask0_201_2548" style="mask-type:luminance" maskUnits="userSpaceOnUse" x="34" y="1" width="33" height="39">
<path d="M67 1H34V40H67V1Z" fill="white"/>
<path d="M36.2273 37.9999V3.09082H40.4545V20.409H40.8636L56.5455 3.09082H62.0682L47.4091 18.8408L62.0682 37.9999H56.9545L44.8182 21.7726L40.4545 26.6817V37.9999H36.2273Z" fill="black"/>
</mask>
<g mask="url(#mask0_201_2548)">
<path d="M36.2273 37.9999H34.2273V39.9999H36.2273V37.9999ZM36.2273 3.09081V1.09082H34.2273V3.09081H36.2273ZM40.4545 3.09081H42.4545V1.09082H40.4545V3.09081ZM40.4545 20.409H38.4545V22.409H40.4545V20.409ZM40.8636 20.409V22.409H41.7507L42.3462 21.7514L40.8636 20.409ZM56.5455 3.09081V1.09082H55.6584L55.0629 1.74838L56.5455 3.09081ZM62.0682 3.09081L63.5322 4.45341L66.6619 1.09082H62.0682V3.09081ZM47.4091 18.8408L45.9451 17.4782L44.7943 18.7146L45.8207 20.0561L47.4091 18.8408ZM62.0682 37.9999V39.9999H66.1167L63.6566 36.7846L62.0682 37.9999ZM56.9545 37.9999L55.3529 39.1977L55.9529 39.9999H56.9545V37.9999ZM44.8182 21.7726L46.4198 20.5748L44.9518 18.6119L43.3234 20.4439L44.8182 21.7726ZM40.4545 26.6817L38.9597 25.353L38.4545 25.9213V26.6817H40.4545ZM40.4545 37.9999V39.9999H42.4545V37.9999H40.4545ZM38.2273 37.9999V3.09081H34.2273V37.9999H38.2273ZM36.2273 5.09081H40.4545V1.09082H36.2273V5.09081ZM38.4545 3.09081V20.409H42.4545V3.09081H38.4545ZM40.4545 22.409H40.8636V18.409H40.4545V22.409ZM42.3462 21.7514L58.028 4.43321L55.0629 1.74838L39.3811 19.0666L42.3462 21.7514ZM56.5455 5.09081H62.0682V1.09082H56.5455V5.09081ZM60.6042 1.72821L45.9451 17.4782L48.8731 20.2034L63.5322 4.45341L60.6042 1.72821ZM45.8207 20.0561L60.4798 39.2152L63.6566 36.7846L48.9975 17.6255L45.8207 20.0561ZM62.0682 35.9999H56.9545V39.9999H62.0682V35.9999ZM58.5562 36.8021L46.4198 20.5748L43.2166 22.9705L55.3529 39.1977L58.5562 36.8021ZM43.3234 20.4439L38.9597 25.353L41.9494 28.0104L46.313 23.1014L43.3234 20.4439ZM38.4545 26.6817V37.9999H42.4545V26.6817H38.4545ZM40.4545 35.9999H36.2273V39.9999H40.4545V35.9999Z" fill="#F3E5FE"/>
</g>
<mask id="mask1_201_2548" style="mask-type:luminance" maskUnits="userSpaceOnUse" x="0" y="0" width="35" height="41">
<path d="M35 0H0V41H35V0Z" fill="white"/>
<path d="M28.0908 13.9997C27.7158 12.852 27.2215 11.8236 26.6079 10.9145C26.0056 9.99398 25.284 9.20988 24.4431 8.56218C23.6135 7.91448 22.6704 7.42018 21.6135 7.07918C20.5567 6.73828 19.3976 6.56788 18.1363 6.56788C16.0681 6.56788 14.1874 7.10198 12.4942 8.17018C10.801 9.23828 9.45444 10.8122 8.45444 12.8917C7.45444 14.9713 6.95444 17.5224 6.95444 20.5452C6.95444 23.5679 7.46012 26.119 8.47148 28.1986C9.48284 30.2781 10.8522 31.852 12.5794 32.9202C14.3067 33.9883 16.2499 34.5224 18.409 34.5224C20.409 34.5224 22.1704 34.0963 23.6931 33.244C25.2272 32.3804 26.4204 31.1645 27.2726 29.5963C28.1363 28.0167 28.5681 26.1588 28.5681 24.0224L29.8635 24.2952H19.3635V20.5452H32.659V24.2952C32.659 27.1702 32.0454 29.6702 30.8181 31.7952C29.6022 33.9202 27.9204 35.5679 25.7726 36.7383C23.6363 37.8974 21.1817 38.477 18.409 38.477C15.3181 38.477 12.6022 37.7497 10.2613 36.2952C7.93171 34.8406 6.11353 32.7724 4.80671 30.0906C3.51125 27.4088 2.86353 24.227 2.86353 20.5452C2.86353 17.7838 3.23284 15.3008 3.97148 13.0963C4.72148 10.8804 5.7783 8.99398 7.14194 7.43718C8.50557 5.88038 10.1192 4.68718 11.9829 3.85768C13.8465 3.02808 15.8976 2.61328 18.1363 2.61328C19.9772 2.61328 21.6931 2.89168 23.284 3.44858C24.8863 3.99398 26.3124 4.77238 27.5624 5.78378C28.8238 6.78378 29.8749 7.98268 30.7158 9.38038C31.5567 10.7667 32.1363 12.3065 32.4544 13.9997H28.0908Z" fill="black"/>
</mask>
<g mask="url(#mask1_201_2548)">
<path d="M28.0908 13.9996L26.1897 14.6208L26.6402 15.9996H28.0908V13.9996ZM26.6079 10.9144L24.9343 12.0094L24.9421 12.0214L24.9502 12.0333L26.6079 10.9144ZM24.4431 8.56214L23.2122 10.1385L23.2226 10.1466L24.4431 8.56214ZM23.6931 33.2439L24.6699 34.9892L24.6742 34.9867L23.6931 33.2439ZM27.2726 29.5962L25.5178 28.6367L25.5154 28.6412L27.2726 29.5962ZM28.5681 24.0223L28.9801 22.0652L26.5681 21.5574V24.0223H28.5681ZM29.8635 24.2951V26.2951L30.2756 22.338L29.8635 24.2951ZM19.3635 24.2951H17.3635V26.2951H19.3635V24.2951ZM19.3635 20.5451V18.5451H17.3635V20.5451H19.3635ZM32.659 20.5451H34.659V18.5451H32.659V20.5451ZM30.8181 31.7951L29.0862 30.7948L29.0822 30.8018L30.8181 31.7951ZM25.7726 36.7382L26.7264 38.4962L26.7297 38.4944L25.7726 36.7382ZM10.2613 36.2951L9.202 37.9915L9.20571 37.9938L10.2613 36.2951ZM4.80671 30.0905L3.0058 30.9604L3.00881 30.9666L4.80671 30.0905ZM3.97148 13.0962L2.07704 12.455L2.07509 12.4608L3.97148 13.0962ZM23.284 3.44854L22.6233 5.33624L22.6314 5.33904L22.6395 5.34184L23.284 3.44854ZM27.5624 5.78374L26.3044 7.33854L26.3121 7.34484L26.3199 7.35094L27.5624 5.78374ZM30.7158 9.38034L29.002 10.4113L29.0058 10.4175L30.7158 9.38034ZM32.4544 13.9996V15.9996H34.8653L34.42 13.6302L32.4544 13.9996ZM29.9919 13.3784C29.565 12.0719 28.9929 10.873 28.2655 9.79544L24.9502 12.0333C25.4501 12.7739 25.8666 13.6318 26.1897 14.6208L29.9919 13.3784ZM28.2814 9.81934C27.5611 8.71844 26.6882 7.76694 25.6635 6.97764L23.2226 10.1466C23.8798 10.6527 24.4501 11.2694 24.9343 12.0094L28.2814 9.81934ZM25.674 6.98574C24.6495 6.18584 23.4952 5.58464 22.2275 5.17574L20.9995 8.98264C21.8456 9.25554 22.5775 9.64294 23.2122 10.1385L25.674 6.98574ZM22.2275 5.17574C20.9474 4.76284 19.5782 4.56784 18.1363 4.56784V8.56784C19.2171 8.56784 20.166 8.71374 20.9995 8.98264L22.2275 5.17574ZM18.1363 4.56784C15.7035 4.56784 13.4507 5.20194 11.4271 6.47854L13.5614 9.86164C14.9241 9.00184 16.4326 8.56784 18.1363 8.56784V4.56784ZM11.4271 6.47854C9.37009 7.77624 7.78943 9.65964 6.652 12.0249L10.2569 13.7584C11.1195 11.9646 12.232 10.7002 13.5614 9.86164L11.4271 6.47854ZM6.652 12.0249C5.48814 14.4452 4.95444 17.3115 4.95444 20.5451H8.95444C8.95444 17.7332 9.42072 15.4972 10.2569 13.7584L6.652 12.0249ZM4.95444 20.5451C4.95444 23.7814 5.49476 26.6507 6.67291 29.0732L10.2701 27.3237C9.42547 25.5871 8.95444 23.3541 8.95444 20.5451H4.95444ZM6.67291 29.0732C7.82635 31.4449 9.43521 33.3271 11.5275 34.6211L13.6314 31.219C12.2691 30.3766 11.1394 29.1112 10.2701 27.3237L6.67291 29.0732ZM11.5275 34.6211C13.591 35.8972 15.9028 36.5223 18.409 36.5223V32.5223C16.597 32.5223 15.0224 32.0793 13.6314 31.219L11.5275 34.6211ZM18.409 36.5223C20.7004 36.5223 22.8075 36.0316 24.6699 34.9892L22.7163 31.4987C21.5333 32.1608 20.1176 32.5223 18.409 32.5223V36.5223ZM24.6742 34.9867C26.5407 33.936 28.0007 32.4449 29.0299 30.5512L25.5154 28.6412C24.84 29.8839 23.9137 30.8246 22.7119 31.5011L24.6742 34.9867ZM29.0275 30.5557C30.0795 28.6315 30.5681 26.4314 30.5681 24.0223H26.5681C26.5681 25.886 26.193 27.4018 25.5178 28.6367L29.0275 30.5557ZM28.1561 25.9794L29.4515 26.2522L30.2756 22.338L28.9801 22.0652L28.1561 25.9794ZM29.8635 22.2951H19.3635V26.2951H29.8635V22.2951ZM21.3635 24.2951V20.5451H17.3635V24.2951H21.3635ZM19.3635 22.5451H32.659V18.5451H19.3635V22.5451ZM30.659 20.5451V24.2951H34.659V20.5451H30.659ZM30.659 24.2951C30.659 26.8796 30.1097 29.0225 29.0862 30.7948L32.55 32.7953C33.981 30.3176 34.659 27.4605 34.659 24.2951H30.659ZM29.0822 30.8018C28.05 32.6056 26.6377 33.9891 24.8156 34.9821L26.7297 38.4944C29.203 37.1465 31.1543 35.2345 32.554 32.7883L29.0822 30.8018ZM24.8189 34.9803C23.0143 35.9594 20.896 36.4769 18.409 36.4769V40.4769C21.4674 40.4769 24.2582 39.8353 26.7264 38.4962L24.8189 34.9803ZM18.409 36.4769C15.6445 36.4769 13.3035 35.8307 11.3168 34.5963L9.20571 37.9938C11.9009 39.6685 14.9916 40.4769 18.409 40.4769V36.4769ZM11.3205 34.5986C9.33662 33.3599 7.76178 31.5891 6.60461 29.2144L3.00881 30.9666C4.46528 33.9555 6.52679 36.3211 9.202 37.9915L11.3205 34.5986ZM6.60761 29.2206C5.47043 26.8664 4.86353 23.9952 4.86353 20.5451H0.863525C0.863525 24.4585 1.55207 27.9509 3.0058 30.9604L6.60761 29.2206ZM4.86353 20.5451C4.86353 17.9603 5.20935 15.697 5.86787 13.7316L2.07509 12.4608C1.25634 14.9045 0.863525 17.6071 0.863525 20.5451H4.86353ZM5.86591 13.7374C6.54259 11.7381 7.47711 10.0898 8.64641 8.75494L5.63746 6.11934C4.07949 7.89804 2.90036 10.0225 2.07704 12.455L5.86591 13.7374ZM8.64641 8.75494C9.82211 7.41264 11.201 6.39484 12.7962 5.68474L11.1695 2.03044C9.03741 2.97944 7.18903 4.34794 5.63746 6.11934L8.64641 8.75494ZM12.7962 5.68474C14.3798 4.97984 16.1503 4.61324 18.1363 4.61324V0.613281C15.6449 0.613281 13.3132 1.07624 11.1695 2.03044L12.7962 5.68474ZM18.1363 4.61324C19.7729 4.61324 21.2634 4.86024 22.6233 5.33624L23.9447 1.56079C22.1227 0.923101 20.1815 0.613281 18.1363 0.613281V4.61324ZM22.6395 5.34184C24.0308 5.81544 25.2469 6.48294 26.3044 7.33854L28.8204 4.22894C27.3779 3.06184 25.7417 2.17244 23.9285 1.5552L22.6395 5.34184ZM26.3199 7.35094C27.3908 8.19994 28.283 9.21634 29.002 10.4113L32.4296 8.34924C31.4667 6.74884 30.2568 5.36754 28.8049 4.21654L26.3199 7.35094ZM29.0058 10.4175C29.7145 11.5858 30.2123 12.8971 30.4889 14.369L34.42 13.6302C34.0603 11.7158 33.399 9.94744 32.4258 8.34314L29.0058 10.4175ZM32.4544 11.9996H28.0908V15.9996H32.4544V11.9996Z" fill="#F3E5FE"/>
</g>
</svg>
